PathFileType	4	(X/Y/Z)	C:\Users\Basilio\Documents\Thesis Gigler\squatting_fais\c3dfiles\047\SLS_pre_front4\markers_experimental.trc
DataRate	CameraRate	NumFrames	NumMarkers	Units	OrigDataRate	OrigDataStartFrame	OrigNumFrames
200.000000	200.000000	4	60	mm	200.000000	1053	1404
Frame#	Time	FHD			LBHD			RBHD			C7			T10			CLAV			LSHO			LUUPA			LMUPA			LDUPA			LLEP			LMEP			LRAD			LUL			LRFIN			RSHO			RUPA1			RMUPA			RDUPA			RLEP			RMEP			RRAD			RUL			RUFIN			LASI			RASI			USACR			LSACR			RSACR			LTHI1			LTHI2			LTHI3			LTHI4			LLFC			LMFC			LTIB1			LTIB2			LTIB3			LTIB4			LLMAL			LMMAL			LMT1			LMT2			LMT5			RTHI			RTHI2			RTHI3			RTHI4			RLFC			RMFC			RTIB1			RTIB2			RTIB3			RTIB4			RLMAL			RMMAL			RHEE			RMT1			RMT2			RMT5			
		X1	Y1	Z1	X2	Y2	Z2	X3	Y3	Z3	X4	Y4	Z4	X5	Y5	Z5	X6	Y6	Z6	X7	Y7	Z7	X8	Y8	Z8	X9	Y9	Z9	X10	Y10	Z10	X11	Y11	Z11	X12	Y12	Z12	X13	Y13	Z13	X14	Y14	Z14	X15	Y15	Z15	X16	Y16	Z16	X17	Y17	Z17	X18	Y18	Z18	X19	Y19	Z19	X20	Y20	Z20	X21	Y21	Z21	X22	Y22	Z22	X23	Y23	Z23	X24	Y24	Z24	X25	Y25	Z25	X26	Y26	Z26	X27	Y27	Z27	X28	Y28	Z28	X29	Y29	Z29	X30	Y30	Z30	X31	Y31	Z31	X32	Y32	Z32	X33	Y33	Z33	X34	Y34	Z34	X35	Y35	Z35	X36	Y36	Z36	X37	Y37	Z37	X38	Y38	Z38	X39	Y39	Z39	X40	Y40	Z40	X41	Y41	Z41	X42	Y42	Z42	X43	Y43	Z43	X44	Y44	Z44	X45	Y45	Z45	X46	Y46	Z46	X47	Y47	Z47	X48	Y48	Z48	X49	Y49	Z49	X50	Y50	Z50	X51	Y51	Z51	X52	Y52	Z52	X53	Y53	Z53	X54	Y54	Z54	X55	Y55	Z55	X56	Y56	Z56	X57	Y57	Z57	X58	Y58	Z58	X59	Y59	Z59	X60	Y60	Z60	

1054	5.265	-84.19122314453126	1460.780395507813	-1084.873657226563	-261.9647827148438	1427.0634765625	-1112.881591796875	-241.8257598876954	1433.63916015625	-965.4653930664065	-300.8628540039063	1267.781494140625	-1034.869750976563	-404.8204345703126	988.7800903320315	-991.1103515625002	-159.534423828125	1187.057006835938	-1060.572021484375	-237.5074768066407	1233.014770507813	-1199.275390625	-174.9904937744141	1154.928588867188	-1337.998413085938	-143.9620513916016	1193.938720703125	-1336.950439453125	-114.680290222168	1156.745971679688	-1372.893920898438	-57.04076766967775	1172.41748046875	-1400.909423828125	-25.88485908508301	1110.597900390625	-1357.792724609375	205.7591400146485	1158.658569335938	-1442.105224609375	183.2648162841797	1176.716552734375	-1512.116943359375	277.2603759765626	1192.553100585938	-1471.766357421875	-188.5801391601563	1258.512451171875	-919.6033935546877	-59.02227783203126	1204.729248046875	-809.2600708007815	-32.60451889038087	1237.272216796875	-835.8308105468752	10.48494625091553	1202.249267578125	-812.0847167968752	77.73375701904298	1215.033935546875	-823.501892089844	83.92125701904298	1145.125122070313	-865.4827880859377	335.6417846679688	1205.267578125	-897.954528808594	334.3172302246094	1227.9248046875	-828.5349121093752	416.5904846191407	1228.484497070313	-895.911071777344	-301.7611999511719	741.2717895507814	-1075.01416015625	-282.5923461914063	769.3930664062502	-850.1429443359377	-463.581268310547	850.5596923828127	-964.8079833984377	-479.1070556640626	819.6044921875002	-989.527526855469	-472.631561279297	822.0473632812502	-932.705261230469	-320.8643188476563	615.6627807617189	-1151.544189453125	-239.0328674316407	594.8243408203126	-1158.748046875	-208.9061584472657	631.7931518554689	-1146.719848632813	-215.7156982421876	539.6965332031251	-1163.624877929688	-105.0244827270508	419.175994873047	-1143.948974609375	-58.93777465820314	433.6808166503907	-1020.049499511719	-145.9128875732422	273.3580322265626	-1022.422729492188	-176.9637756347657	226.0714874267579	-1089.168579101563	-165.8219757080078	222.8834075927735	-1043.22900390625	-225.0307617187501	177.541748046875	-1007.755615234375	-320.7500610351563	115.1644058227539	-1052.284790039063	-296.9301757812501	137.969467163086	-964.235534667969	-189.7865142822266	61.223445892334	-977.0511474609377	-187.9908752441407	58.53674316406251	-1021.750122070313	-236.3907318115235	44.95007324218751	-1067.105346679688	-279.7748107910157	617.8847045898439	-751.7674560546876	-213.9037628173829	611.3010253906251	-762.0585327148439	-195.1760864257813	635.8706054687501	-771.8157958984377	-170.5984497070313	540.0000000000001	-767.4622802734376	-54.87092208862306	454.5131835937501	-798.7549438476565	-46.46152877807618	462.1461486816407	-923.080505371094	58.64737701416017	390.1092224121095	-829.2921142578127	79.24922180175783	290.7448730468751	-787.2510375976565	107.1750640869141	320.3966064453126	-809.8892211914065	142.6237945556641	292.5286254882813	-846.3797607421877	207.9123077392579	144.9384918212891	-817.8555297851565	206.9559173583985	166.5850677490235	-907.8253173828127	176.1288299560547	81.27306365966798	-862.9324340820315	354.5023803710938	181.0119018554688	-909.8959960937502	360.0875244140626	193.1344299316407	-867.6819458007815	343.0404052734376	149.677719116211	-806.1982421875002	
1055	5.27	-85.28227996826173	1462.796508789063	-1084.450073242188	-262.7494812011719	1428.685424804688	-1112.52587890625	-242.3529205322266	1435.45458984375	-965.3645019531252	-301.4259338378907	1269.480224609375	-1034.462768554688	-404.8528137207032	990.1253662109377	-990.951599121094	-159.8665313720703	1189.218383789063	-1060.404907226563	-238.1503143310547	1234.771362304688	-1198.92431640625	-175.4528350830078	1156.653564453125	-1337.7802734375	-144.5407867431641	1195.72265625	-1336.758666992188	-115.391471862793	1158.5009765625	-1372.80712890625	-58.09372711181642	1174.229858398438	-1400.867431640625	-26.63819885253907	1113.0107421875	-1358.2431640625	205.1958160400391	1160.620483398438	-1442.407958984375	183.2890014648438	1178.31005859375	-1512.543212890625	276.7008972167969	1194.34912109375	-1472.417602539063	-188.8753967285157	1260.123413085938	-919.2986450195315	-59.23650360107423	1206.696533203125	-808.9573364257815	-32.91638946533204	1239.302368164063	-835.7227172851565	10.12278556823731	1204.097534179688	-811.6495361328127	77.40794372558595	1217.037841796875	-823.0805664062502	83.77812957763673	1147.27734375	-865.7754516601565	333.5015869140626	1206.67578125	-896.4870605468752	334.2341918945313	1230.350219726563	-828.524597167969	416.1251831054689	1231.096557617188	-895.697937011719	-301.6152343750001	742.2044067382814	-1074.849975585938	-282.0624084472657	770.7452392578127	-850.2373657226565	-463.238006591797	851.785339355469	-964.7851562500002	-478.548553466797	820.859069824219	-989.4853515625002	-472.2256469726564	823.4398193359377	-932.6609497070315	-320.3510742187501	616.9191894531251	-1151.449951171875	-238.7895660400391	595.7577514648439	-1158.566650390625	-208.7073364257813	632.6188964843751	-1146.527465820313	-215.6413269042969	540.3906860351564	-1163.393920898438	-105.2055130004883	419.6209411621095	-1143.662475585938	-59.15324783325197	433.8906250000001	-1019.790954589844	-146.4060821533203	273.6952209472657	-1022.077087402344	-177.0286407470703	226.1590118408204	-1088.898315429688	-165.8744506835938	223.0840301513672	-1043.0126953125	-225.2464904785157	177.7223663330078	-1007.399536132813	-320.8121032714844	115.2085876464844	-1052.102294921875	-296.9502868652344	137.8883972167969	-964.1328125000002	-189.9631500244141	61.14381408691408	-976.8941650390627	-188.0536651611328	58.51483535766603	-1021.665344238281	-236.3958282470704	45.01440048217774	-1067.054931640625	-279.2244873046876	619.3530883789064	-751.6606445312501	-213.2124023437501	612.5974121093751	-761.1414794921876	-194.851791381836	637.2640991210939	-771.4920654296877	-170.2354278564453	541.2396240234376	-767.5550537109376	-54.6647415161133	455.5232849121095	-799.0613403320315	-46.21264266967774	462.9414672851564	-922.9692382812502	58.60122680664064	391.1807250976564	-829.1790161132815	79.05331420898439	291.3834838867188	-787.1859130859377	107.1717910766602	321.0005187988282	-810.019470214844	142.6014709472657	293.2219543457032	-846.6033935546877	207.6203918457032	145.8436584472657	-817.877136230469	206.5007934570313	167.0268707275391	-907.7932739257815	175.6391754150391	82.08896636962892	-863.075378417969	354.0461425781251	181.2800445556641	-909.9014282226565	359.9440612792969	193.0444793701172	-867.5418090820315	342.6204223632813	150.088119506836	-806.075866699219	
1056	5.275	-85.82238006591798	1464.841552734375	-1084.275024414063	-263.5246582031251	1430.537231445313	-1112.164306640625	-242.8465423583985	1437.222900390625	-964.8352050781252	-301.8666687011719	1271.103149414063	-1034.191040039063	-404.4306945800782	991.1618652343752	-990.724060058594	-160.151611328125	1191.116333007813	-1060.2109375	-238.5957794189454	1236.359619140625	-1198.568969726563	-176.3339080810547	1158.529541015625	-1337.432983398438	-145.2817993164063	1197.562622070313	-1336.605346679688	-116.0713272094727	1160.284545898438	-1372.762573242188	-57.47109603881837	1175.401977539063	-1401.148071289063	-27.31932640075684	1114.340209960938	-1358.016235351563	204.3094940185547	1162.324951171875	-1442.8359375	181.7353820800782	1180.570190429688	-1512.844482421875	276.0173645019532	1196.440795898438	-1472.925048828125	-189.2969360351563	1262.056640625	-918.975769042969	-59.41918945312501	1208.308227539063	-808.9255371093752	-33.21532821655274	1241.132690429688	-835.3598632812502	10.10160350799561	1206.1181640625	-811.598083496094	77.14239501953126	1219.057983398438	-823.177917480469	83.46881103515626	1149.228759765625	-865.1524658203127	333.3781433105469	1209.201782226563	-896.5349121093752	333.7838439941407	1232.768676757813	-828.4207153320315	415.9976806640626	1233.25439453125	-895.4621582031252	-301.0984497070313	743.7161865234376	-1074.834594726563	-281.7457885742188	772.1884765625002	-850.064392089844	-462.7050170898439	853.1517333984377	-964.786071777344	-477.8833618164064	821.9267578125002	-989.6643676757815	-471.7766113281251	824.7689208984377	-932.6860961914065	-320.0557556152344	617.9830322265626	-1151.306396484375	-238.4724731445313	596.5617675781251	-1158.542114257813	-208.2545776367188	633.2529296875001	-1146.399536132813	-215.6282653808594	541.2235107421876	-1163.148559570313	-105.5258865356446	420.0579223632814	-1143.376342773438	-59.54139709472658	433.9958801269532	-1019.521423339844	-146.4645080566407	273.9161071777344	-1021.861206054688	-177.1472320556641	226.2116088867188	-1088.71875	-166.0121765136719	223.2891845703126	-1042.767578125	-225.2826843261719	177.8110961914063	-1007.240661621094	-320.7606506347657	115.2852935791016	-1052.015747070313	-296.9678039550782	137.8343200683594	-963.983337402344	-189.9523010253907	61.12697982788087	-976.7958984375002	-188.0991821289063	58.57912445068361	-1021.555480957031	-236.655502319336	45.47764205932618	-1066.96435546875	-278.8005065917969	620.7700195312501	-751.6602783203126	-212.855697631836	613.9152221679689	-761.1191406250001	-194.4605865478516	638.5305786132814	-771.7504882812502	-170.1404418945313	542.6024780273439	-767.4116210937501	-54.52206420898439	456.6843261718751	-798.9197387695315	-46.20909881591798	463.906707763672	-922.891540527344	58.54954147338869	392.0411376953126	-829.2324218750002	79.12881469726564	292.3513793945313	-787.3486328125002	107.2072372436524	321.7490234375001	-810.0705566406252	142.8915557861328	293.6853332519532	-846.628356933594	207.1903076171876	146.2623443603516	-817.5660400390627	206.1313476562501	167.68359375	-907.8363037109377	175.3589630126953	82.55562591552736	-863.2285156250002	353.9196472167969	181.6262359619141	-910.0791625976565	359.7595825195313	193.5801086425782	-867.961853027344	342.4515075683594	150.4683074951172	-806.4036865234377	
1057	5.28	-86.84527587890626	1467.05224609375	-1083.826904296875	-264.3846740722657	1432.356201171875	-1111.758666992188	-243.9228515625001	1439.053833007813	-964.2719726562502	-302.5414733886719	1272.932373046875	-1033.7841796875	-404.7016906738282	992.8240966796877	-990.7678833007815	-160.7523193359375	1192.95263671875	-1059.854614257813	-239.0395660400391	1238.241821289063	-1198.487182617188	-176.8032836914063	1160.467529296875	-1337.252075195313	-145.1124877929688	1199.624633789063	-1336.88525390625	-116.8385162353516	1162.238403320313	-1372.582763671875	-59.19969558715822	1178.090942382813	-1400.796752929688	-27.67707061767579	1116.255615234375	-1357.9306640625	204.2256774902344	1164.680786132813	-1442.938598632813	180.873046875	1182.58642578125	-1513.126831054688	274.9522399902344	1198.401123046875	-1473.40185546875	-189.8164672851563	1263.675903320313	-918.6091308593752	-59.79362106323244	1210.312133789063	-808.5147705078127	-33.83965682983399	1243.108154296875	-834.9827270507815	9.792424201965334	1208.042602539063	-811.4228515625002	76.69980621337892	1221.071533203125	-822.7905883789065	83.3954544067383	1151.4365234375	-865.2182617187502	333.0688476562501	1211.626831054688	-896.4561157226565	333.5374755859376	1235.205688476563	-828.250915527344	414.8338317871095	1235.902099609375	-894.8756103515627	-300.7676696777344	745.2402343750001	-1074.716918945313	-281.1855773925782	773.642517089844	-849.7689208984377	-462.4464416503907	854.4616699218752	-964.8701171875002	-477.7333374023439	823.6134033203127	-989.4920654296877	-471.0547790527345	825.9776000976565	-932.678649902344	-319.7876586914063	618.8884277343751	-1151.266235351563	-238.3900604248047	597.3895874023439	-1158.326293945313	-207.7859802246094	633.8279418945314	-1146.304565429688	-215.5700073242188	541.9561767578126	-1162.932983398438	-105.9094009399414	420.440399169922	-1142.998168945313	-60.50133514404298	434.2163085937501	-1018.873291015625	-146.5941619873047	274.1070251464844	-1021.597534179688	-177.1465911865235	226.4279937744141	-1088.525024414063	-166.1197509765625	223.5464935302735	-1042.681640625	-225.3996887207032	177.989974975586	-1007.038024902344	-320.7147827148438	115.3136749267578	-1051.892333984375	-297.0190429687501	137.5196533203125	-963.6582031250002	-190.1412963867188	61.05674362182619	-976.6347656250002	-188.0133972167969	58.70142745971681	-1021.547729492188	-236.3352203369141	45.28482818603516	-1066.962158203125	-278.3725585937501	622.0494995117189	-751.6531982421876	-212.5477294921876	615.2205810546876	-761.0870971679689	-194.0853118896485	639.8883666992189	-771.3772583007815	-169.8152923583985	543.7776489257814	-767.6539916992189	-54.65332794189455	457.792694091797	-798.724548339844	-46.23384094238282	465.0844726562501	-923.070251464844	58.48723220825197	392.9429626464845	-829.162780761719	78.9634246826172	293.5669860839844	-787.2108154296877	106.7940368652344	322.7728576660157	-809.758239746094	142.4981384277344	294.4994812011719	-846.457458496094	206.8282928466797	146.8809051513672	-817.9710693359377	205.6065826416016	168.3294525146485	-907.8787231445315	174.8225860595703	83.4191360473633	-863.3394775390627	353.7497253417969	181.8976135253907	-910.220397949219	359.4815368652344	193.9857635498047	-868.0795898437502	342.0584716796876	151.0357208251953	-806.7239379882815	
